<svg xmlns="http://www.w3.org/2000/svg" viewBox="17 7 74 26" role="img" aria-labelledby="title">
  <title id="title">Apple Pay</title>
  <path fill="#111" d="M30.6 12.8c1-1.2 1.7-2.8 1.5-4.4-1.5.1-3.2 1-4.2 2.2-.9 1-1.7 2.7-1.5 4.2 1.6.1 3.2-.8 4.2-2Zm3.6 8.2c0-3 2.4-4.5 2.5-4.6-1.3-2-3.5-2.2-4.3-2.2-1.8-.2-3.6 1.1-4.5 1.1-1 0-2.4-1.1-4-1-2 0-3.8 1.2-4.8 3-2 3.5-.5 8.7 1.4 11.6 1 1.4 2.1 3 3.6 2.9 1.5-.1 2-1 3.8-1s2.3 1 3.8 1c1.6 0 2.6-1.4 3.5-2.8 1.1-1.6 1.5-3.2 1.5-3.3-.1 0-2.5-1-2.5-4.7Z"/>
  <text x="73" y="27" fill="#111" font-family="Arial, sans-serif" font-size="20" font-weight="700" text-anchor="middle">Pay</text>
</svg>
